<?xml version="1.0" encoding="utf-8"?>
<svg xmlns="http://www.w3.org/2000/svg" x="0px" y="0px" viewBox="0 0 16 16">
  <path fill="#000000" d="M8,1C4.13,1,1,4.13,1,8s3.13,7,7,7c3.87,0,7-3.13,7-7S11.87,1,8,1z M9.13,3L8.87,9.7H7.11L6.85,3H9.13z
	 M8.91,12.6c-0.23,0.21-0.53,0.32-0.9,0.32c-0.37,0-0.67-0.11-0.91-0.33c-0.24-0.22-0.36-0.49-0.36-0.81c0-0.33,0.12-0.6,0.36-0.81
	c0.24-0.21,0.54-0.32,0.9-0.32c0.37,0,0.67,0.11,0.9,0.32c0.23,0.21,0.35,0.48,0.35,0.81C9.26,12.11,9.14,12.38,8.91,12.6z"/>
</svg>
