<svg xmlns="http://www.w3.org/2000/svg" viewBox="0 0 512 512">
  <style>
    .st0 {
      fill: param(circleBackgroundColor);
      stroke: param(circleColor);
      stroke-width: 30;
      stroke-miterlimit: 10;
    }
    .st1{
      fill: param(color);
    }
  </style>
  <circle class="st0" cx="256" cy="256" r="231"/>
  <path class="st1" d="M125.4 248.9H138c6 0 10.4-1.5 13.3-4.5 2.9-3 4.3-7 4.3-11.9 0-4.8-1.4-8.5-4.3-11.2-2.9-2.7-6.8-4-11.8-4-4.5 0-8.3 1.2-11.3 3.7s-4.6 5.7-4.6 9.7H100c0-6.2 1.7-11.8 5-16.7 3.3-4.9 8-8.8 14-11.5 6-2.8 12.6-4.2 19.9-4.2 12.6 0 22.4 3 29.5 9 7.1 6 10.7 14.3 10.7 24.8 0 5.4-1.7 10.4-5 15s-7.7 8.1-13 10.5c6.7 2.4 11.7 6 15 10.8 3.3 4.8 4.9 10.4 4.9 17 0 10.5-3.8 19-11.5 25.4-7.7 6.4-17.9 9.5-30.5 9.5-11.9 0-21.5-3.1-29.1-9.4-7.5-6.3-11.3-14.5-11.3-24.8h23.6c0 4.5 1.7 8.1 5 10.9 3.3 2.8 7.5 4.2 12.4 4.2 5.6 0 10-1.5 13.2-4.4 3.2-3 4.8-6.9 4.8-11.8 0-11.9-6.5-17.8-19.6-17.8h-12.5v-18.3zM261.1 198.8v19.4h-2.3c-10.7.2-19.2 2.9-25.7 8.3s-10.4 12.9-11.7 22.4c6.3-6.4 14.3-9.6 23.9-9.6 10.3 0 18.5 3.7 24.6 11.1 6.1 7.4 9.1 17.1 9.1 29.2 0 7.7-1.7 14.7-5 21-3.3 6.3-8.1 11.1-14.2 14.6s-13 5.2-20.8 5.2c-12.5 0-22.6-4.3-30.3-13-7.7-8.7-11.5-20.3-11.5-34.8V264c0-12.9 2.4-24.3 7.3-34.1 4.9-9.9 11.9-17.5 21-22.9 9.1-5.4 19.7-8.1 31.7-8.2h3.9zm-23 59.5c-3.8 0-7.3 1-10.4 3-3.1 2-5.4 4.6-6.8 7.9v7.2c0 7.9 1.5 14 4.6 18.4 3.1 4.4 7.4 6.6 13 6.6 5.1 0 9.1-2 12.3-6 3.1-4 4.7-9.2 4.7-15.5 0-6.5-1.6-11.7-4.7-15.6-3.1-4-7.3-6-12.7-6zM372.9 269.6c0 16.4-3.4 29-10.2 37.7-6.8 8.7-16.7 13-29.8 13-12.9 0-22.8-4.3-29.7-12.8-6.8-8.5-10.4-20.8-10.5-36.7V249c0-16.6 3.4-29.2 10.3-37.8 6.9-8.6 16.8-12.9 29.7-12.9s22.8 4.3 29.7 12.8c6.8 8.5 10.4 20.7 10.5 36.7v21.8zm-23.6-24c0-9.8-1.3-17-4-21.5s-6.9-6.7-12.6-6.7c-5.5 0-9.6 2.1-12.3 6.4-2.6 4.3-4 11-4.2 20v28.9c0 9.7 1.3 16.9 4 21.6 2.6 4.7 6.9 7.1 12.7 7.1 5.8 0 9.9-2.3 12.5-6.8 2.6-4.5 3.9-11.4 4-20.7v-28.3zM391 220.8c0-6.2 2.2-11.5 6.6-15.9 4.4-4.4 9.6-6.6 15.6-6.6 5.9 0 11 2.2 15.4 6.6 4.3 4.4 6.5 9.7 6.5 15.9 0 6.3-2.2 11.5-6.5 15.8-4.3 4.3-9.4 6.4-15.4 6.4-5.9 0-11-2.1-15.5-6.4-4.5-4.2-6.7-9.5-6.7-15.8zm22.2 10.2c2.9 0 5.3-1 7.1-2.9 1.9-1.9 2.8-4.3 2.8-7.2 0-2.8-.9-5.3-2.8-7.3-1.9-2.1-4.3-3.1-7.1-3.1-2.9 0-5.3 1-7.3 3.1s-2.9 4.5-2.9 7.3 1 5.2 3 7.2 4.4 2.9 7.2 2.9z"/>
</svg>