<?xml version="1.0" standalone="no"?>
<!DOCTYPE svg PUBLIC "-//W3C//DTD SVG 20010904//EN"
 "http://www.w3.org/TR/2001/REC-SVG-20010904/DTD/svg10.dtd">
<svg version="1.0" xmlns="http://www.w3.org/2000/svg"
 width="700.000000pt" height="700.000000pt" viewBox="0 0 700.000000 700.000000"
 preserveAspectRatio="xMidYMid meet">
<g transform="translate(0.000000,700.000000) scale(0.100000,-0.100000)"
fill="#000000" stroke="none">
<path d="M3225 6130 c-200 -22 -321 -45 -496 -95 -224 -65 -432 -158 -666
-299 -26 -16 -50 -32 -53 -35 -3 -3 -25 -20 -50 -36 -24 -17 -51 -35 -60 -42
-8 -7 -44 -36 -80 -64 -36 -28 -104 -88 -151 -133 -366 -348 -609 -761 -733
-1249 -34 -130 -40 -162 -52 -242 -3 -22 -7 -51 -10 -65 -24 -149 -24 -557 0
-686 2 -10 7 -39 10 -64 42 -274 139 -567 272 -819 84 -159 166 -281 309 -461
26 -32 270 -276 315 -315 123 -105 312 -231 473 -315 107 -55 291 -137 327
-145 8 -2 33 -10 56 -18 41 -15 222 -66 259 -73 11 -2 31 -6 45 -9 91 -18 187
-33 282 -42 142 -14 518 -6 588 12 8 2 33 6 55 10 499 71 1001 314 1380 667
l70 66 -225 224 c-246 244 -313 295 -458 348 -161 59 -311 66 -497 26 -11 -2
-47 -14 -80 -26 -224 -81 -297 -100 -451 -118 -77 -9 -228 -7 -311 3 -29 3
-55 6 -58 7 -2 0 -33 6 -67 14 -370 86 -683 302 -880 609 -98 151 -162 309
-197 487 -38 195 -35 407 9 593 147 625 689 1065 1330 1080 201 5 350 -21 550
-95 92 -34 132 -46 215 -67 11 -3 72 -6 135 -8 183 -4 350 46 494 149 49 35
394 369 470 454 18 21 17 21 -22 59 -67 63 -157 141 -210 180 -28 21 -63 47
-77 58 -68 52 -238 153 -353 210 -255 126 -541 215 -807 251 -27 4 -63 8 -80
11 -59 8 -451 10 -520 3z"/>
<path d="M3375 3953 c-133 -30 -237 -110 -295 -228 -111 -225 -20 -479 210
-588 60 -29 73 -31 170 -31 125 0 191 21 273 88 197 159 218 442 48 628 -106
115 -258 165 -406 131z"/>
</g>
</svg>
