<?xml version="1.0" encoding="UTF-8"?>
<svg id="logo" xmlns="http://www.w3.org/2000/svg" viewBox="0 0 644.48 187.82">
  <defs>
    <style>
      .cls-1 {
        fill: #1d1d1b;
      }
    </style>
  </defs>
  <g>
    <path class="cls-1" d="m107.63,127.86c-14.93,6.3-33.13,2.55-44.16-11.26-10.85-13.57-10.84-33.23,0-46.8,11.03-13.8,29.23-17.55,44.16-11.26,8.42,3.55,18.13,1.85,24.6-4.61l10.35-10.35c-28.53-28.53-75.73-27.31-102.66,3.67-22.74,26.15-22.74,65.75,0,91.9,26.93,30.98,74.13,32.2,102.66,3.67l-10.35-10.35c-6.46-6.46-16.18-8.17-24.6-4.61Z"/>
    <path class="cls-1" d="m81.33,93.07c0,6.41,5.22,11.63,11.63,11.63s11.63-5.22,11.63-11.63-5.21-11.63-11.63-11.63-11.63,5.22-11.63,11.63Z"/>
  </g>
  <g>
    <path class="cls-1" d="m165.11,104.55v-22.52l8.49-8.49h31.17v7.94h-28.22l-3.23,3.23v17.15l3.23,3.23h28.22v7.94h-31.17l-8.49-8.49Z"/>
    <path class="cls-1" d="m216.72,73.54h40.71v39.5h-40.71v-39.5Zm32.49,31.56v-23.61h-24.27v23.61h24.27Z"/>
    <path class="cls-1" d="m272.49,73.54h32l8.05,8.38v16.55h-10.9l14.68,14.57h-10.41l-14.46-14.41h-10.85v14.41h-8.11v-39.5Zm32.16,16.82v-6.25l-2.25-2.36h-21.81v8.6h24.05Z"/>
    <path class="cls-1" d="m327.72,73.54h39.12v8.11h-30.63v7.78h23.39v7.73h-23.39v7.67h30.63v8.22h-39.12v-39.5Z"/>
    <path class="cls-1" d="m381.09,73.54h44.6l8.22,8.44v31.06h-7.89v-28.27l-3.23-3.12h-11.23v31.39h-7.94v-31.39h-14.57v31.39h-7.94v-39.5Z"/>
    <path class="cls-1" d="m448.75,73.54h39.12v8.11h-30.63v7.78h23.39v7.73h-23.39v7.67h30.63v8.22h-39.12v-39.5Z"/>
    <path class="cls-1" d="m501.35,73.54h33.75l8.49,8.49v22.52l-8.49,8.49h-33.75v-39.5Zm30.79,31.56l3.23-3.23v-17.15l-3.23-3.23h-22.57v23.61h22.57Z"/>
    <path class="cls-1" d="m557.07,73.54h8.22v39.5h-8.22v-39.5Z"/>
    <path class="cls-1" d="m580.35,73.54h32.05l8.49,8.49v31.01h-7.94v-15.18h-24.66v15.18h-7.94v-39.5Zm32.6,16.44v-5.86l-2.58-2.63h-22.08v8.49h24.66Z"/>
  </g>
</svg>