<?xml version="1.0" encoding="UTF-8"?>
<svg id="logo" xmlns="http://www.w3.org/2000/svg" viewBox="0 0 187 187">
  <defs>
    <style>
      .cls-1 {
      fill: #1d1d1b;
      }
    </style>
  </defs>
  <g>
    <path class="cls-1" d="m107.63,127.86c-14.93,6.3-33.13,2.55-44.16-11.26-10.85-13.57-10.84-33.23,0-46.8,11.03-13.8,29.23-17.55,44.16-11.26,8.42,3.55,18.13,1.85,24.6-4.61l10.35-10.35c-28.53-28.53-75.73-27.31-102.66,3.67-22.74,26.15-22.74,65.75,0,91.9,26.93,30.98,74.13,32.2,102.66,3.67l-10.35-10.35c-6.46-6.46-16.18-8.17-24.6-4.61Z"/>
    <path class="cls-1" d="m81.33,93.07c0,6.41,5.22,11.63,11.63,11.63s11.63-5.22,11.63-11.63-5.21-11.63-11.63-11.63-11.63,5.22-11.63,11.63Z"/>
  </g>
</svg>
