<svg version="1.1" id="Ebene_1" xmlns="http://www.w3.org/2000/svg" xmlns:xlink="http://www.w3.org/1999/xlink" x="0px" y="0px"
     viewBox="0 0 115 18" style="enable-background:new 0 0 115 18;" xml:space="preserve">
<style type="text/css">
	.st0{fill-rule:evenodd;clip-rule:evenodd;}
</style>
  <g>
	<path class="st0" d="M30.87,2.67v-1.4h1.67v4.09h-1.7c-0.43-0.82-1.02-1.46-1.76-1.91c-0.75-0.46-1.57-0.69-2.46-0.69
		c-0.86,0-1.63,0.22-2.31,0.66c-0.68,0.44-1.21,1.04-1.58,1.78c-0.38,0.74-0.57,1.54-0.57,2.39c0,0.88,0.2,1.69,0.59,2.44
		c0.4,0.74,0.94,1.34,1.64,1.79s1.47,0.67,2.32,0.67c1.05,0,1.97-0.31,2.78-0.94c0.8-0.62,1.39-1.51,1.76-2.65l1.67,0.86
		c-0.45,1.42-1.25,2.52-2.39,3.3c-1.14,0.78-2.49,1.17-4.02,1.17c-1.27,0-2.39-0.29-3.38-0.88c-0.98-0.59-1.75-1.38-2.3-2.38
		C20.27,9.97,20,8.88,20,7.68c0-1.29,0.28-2.44,0.84-3.45s1.33-1.79,2.31-2.35s2.11-0.83,3.38-0.83c0.85,0,1.64,0.14,2.35,0.41
		S30.26,2.14,30.87,2.67z M40.53,4.88c1.7,0,2.54,0.89,2.54,2.68v4.89h1.55v1.56h-3.34V8.19c0-0.64-0.09-1.09-0.28-1.35
		c-0.19-0.26-0.48-0.39-0.87-0.39c-0.67,0-1.53,0.38-2.6,1.14v4.86h1.58v1.56h-5.01v-1.56h1.63V2.8h-1.63V1.26h3.43v4.9
		C38.6,5.31,39.6,4.88,40.53,4.88z M55.26,10.01h-7.65c0.11,0.85,0.45,1.52,1.02,2.02c0.57,0.49,1.26,0.74,2.08,0.74
		c0.6,0,1.16-0.12,1.68-0.36c0.52-0.24,0.95-0.61,1.29-1.12l1.58,0.69c-0.5,0.76-1.15,1.33-1.96,1.71s-1.69,0.58-2.64,0.58
		c-0.98,0-1.86-0.2-2.62-0.6c-0.76-0.4-1.36-0.96-1.78-1.68s-0.64-1.52-0.64-2.42c0-0.89,0.21-1.7,0.63-2.41
		c0.42-0.72,0.99-1.28,1.72-1.68s1.53-0.61,2.41-0.61c0.96,0,1.8,0.21,2.51,0.62c0.71,0.41,1.28,1.01,1.69,1.78
		C55,8.05,55.22,8.96,55.26,10.01z M50.42,6.34c-0.68,0-1.27,0.22-1.78,0.66c-0.51,0.44-0.84,1.03-0.98,1.76h5.71
		C53.2,8.03,52.85,7.45,52.3,7C51.76,6.56,51.13,6.34,50.42,6.34z M62.57,3.05l-1.6,0.24c-0.05-0.58-0.28-0.86-0.68-0.86
		c-0.28,0-0.47,0.1-0.57,0.3c-0.1,0.2-0.14,0.55-0.14,1.06v1.35h1.56v1.57h-1.56v5.77h1.72v1.56h-4.85v-1.56h1.34V6.69h-1.34V5.12
		h1.34V3.74c0-0.81,0.2-1.47,0.61-1.98C58.8,1.25,59.41,1,60.21,1c0.66,0,1.19,0.17,1.59,0.51C62.2,1.85,62.46,2.37,62.57,3.05z
		 M78.13,2.67v-1.4h1.67v4.09h-1.7c-0.43-0.82-1.02-1.46-1.76-1.91c-0.75-0.46-1.57-0.69-2.46-0.69c-0.86,0-1.63,0.22-2.31,0.66
		c-0.68,0.44-1.21,1.04-1.58,1.78c-0.38,0.74-0.57,1.54-0.57,2.39c0,0.88,0.2,1.69,0.59,2.44c0.4,0.74,0.94,1.34,1.64,1.79
		s1.47,0.67,2.32,0.67c1.05,0,1.97-0.31,2.78-0.94c0.8-0.62,1.39-1.51,1.76-2.65l1.67,0.86c-0.45,1.42-1.25,2.52-2.39,3.3
		c-1.14,0.78-2.49,1.17-4.02,1.17c-1.27,0-2.39-0.29-3.38-0.88c-0.98-0.59-1.75-1.38-2.3-2.38c-0.55-1-0.82-2.09-0.82-3.28
		c0-1.29,0.28-2.44,0.84-3.45c0.56-1.01,1.33-1.79,2.31-2.35c0.98-0.56,2.11-0.83,3.38-0.83c0.85,0,1.64,0.14,2.35,0.41
		C76.86,1.74,77.52,2.14,78.13,2.67z M91.29,9.58c0,0.86-0.21,1.65-0.63,2.37s-1,1.28-1.73,1.7c-0.73,0.42-1.54,0.63-2.42,0.63
		c-0.91,0-1.74-0.21-2.47-0.63c-0.74-0.42-1.31-0.98-1.72-1.7s-0.61-1.51-0.61-2.37c0-0.9,0.2-1.71,0.61-2.42s0.98-1.27,1.71-1.67
		s1.56-0.61,2.48-0.61c0.9,0,1.71,0.21,2.44,0.64s1.3,1,1.72,1.71C91.09,7.95,91.29,8.73,91.29,9.58z M86.51,12.58
		c0.53,0,1.02-0.14,1.47-0.41c0.45-0.27,0.79-0.63,1.04-1.09c0.25-0.46,0.37-0.96,0.37-1.5c0-0.53-0.12-1.02-0.37-1.48
		c-0.25-0.46-0.6-0.83-1.04-1.1c-0.45-0.28-0.94-0.42-1.48-0.42c-0.53,0-1.02,0.14-1.47,0.41c-0.45,0.27-0.8,0.64-1.05,1.1
		c-0.25,0.46-0.38,0.96-0.38,1.49s0.13,1.03,0.38,1.49c0.25,0.46,0.61,0.83,1.06,1.1C85.48,12.44,85.98,12.58,86.51,12.58z
		 M95.98,10.44v2.01h1.99v1.56h-5.6v-1.56h1.83V6.69h-1.83V5.12h3.26v2.01c0.36-0.8,0.82-1.35,1.36-1.66C97.52,5.16,98.29,5,99.3,5
		h0.41v1.77h-0.39c-0.97,0-1.7,0.12-2.17,0.37c-0.47,0.25-0.79,0.62-0.94,1.13C96.05,8.77,95.98,9.5,95.98,10.44z M111.36,9.61
		c0,0.83-0.2,1.6-0.59,2.33c-0.39,0.72-0.93,1.29-1.61,1.71c-0.68,0.42-1.43,0.63-2.26,0.63c-1.22,0-2.29-0.46-3.2-1.37v3.54h1.78
		V18h-5.23v-1.56h1.65V6.69h-1.53V5.12h3.33v1.42c0.45-0.52,0.95-0.91,1.49-1.16c0.54-0.25,1.13-0.38,1.75-0.38
		c0.86,0,1.63,0.21,2.3,0.62c0.67,0.41,1.19,0.97,1.57,1.68C111.18,8.01,111.36,8.78,111.36,9.61z M106.87,12.68
		c0.5,0,0.95-0.14,1.35-0.42c0.4-0.28,0.71-0.67,0.94-1.15c0.23-0.49,0.34-1,0.34-1.54c0-0.55-0.12-1.05-0.37-1.51
		c-0.25-0.46-0.59-0.83-1.02-1.1s-0.92-0.41-1.47-0.41c-0.57,0-1.08,0.15-1.53,0.44c-0.45,0.29-0.8,0.68-1.05,1.16
		s-0.37,1.01-0.37,1.58c0,0.93,0.3,1.65,0.9,2.17C105.18,12.42,105.94,12.68,106.87,12.68z M112.68,14.01v-2.25H115v2.25H112.68z"/>
</g>
  <g>
	<path d="M9.67,11.95c-1.7,0.72-3.78,0.29-5.04-1.28c-1.24-1.55-1.24-3.79,0-5.34c1.26-1.57,3.33-2,5.04-1.28
		c0.96,0.4,2.07,0.21,2.81-0.53l1.18-1.18C10.4-0.91,5.02-0.77,1.94,2.76c-2.59,2.98-2.59,7.5,0,10.48
		c3.07,3.53,8.45,3.67,11.71,0.42l-1.18-1.18C11.73,11.74,10.63,11.55,9.67,11.95L9.67,11.95z"/>
    <path d="M6.67,7.99c0,0.73,0.6,1.33,1.33,1.33s1.33-0.6,1.33-1.33S8.73,6.66,7.99,6.66S6.67,7.25,6.67,7.99z"/>
</g>
</svg>
